<svg version="1.2" baseProfile="tiny-ps" xmlns="http://www.w3.org/2000/svg" viewBox="0 0 1020 381" width="1020" height="381">
	<title>new ainalab-svg</title>
	<style>
		tspan { white-space:pre }
		.shp0 { fill: #39b54a } 
		.txt1 { font-size: 150px;fill: #000000;font-weight: 400;font-family: "LiberationSans", "Liberation Sans" } 
		.shp2 { fill: #ffffff } 
	</style>
	<path id="Layer" class="shp0" d="M305.27 54.34L135.84 54.34C102.42 54.34 75.33 81.43 75.33 114.85L75.33 284.28C75.33 317.7 102.42 344.79 135.84 344.79L305.27 344.79C338.69 344.79 365.78 317.7 365.78 284.28L365.78 114.84C365.77 81.43 338.69 54.34 305.27 54.34Z" />
	<text id="ainalab " style="transform: matrix(1,0,0,1,410.534,242.88)" >
		<tspan x="0" y="0" class="txt1">ainalab</tspan>
	</text>
	<path id="Layer" fill-rule="evenodd" class="shp2" d="M222.09 288.28C184.1 288.28 153.1 257.29 153.1 219.3C153.1 183.64 182.09 99.33 222.09 99.33C262.09 99.33 291.08 183.64 291.08 219.3C291.08 257.29 260.08 288.28 222.09 288.28ZM222.09 109.33C191.76 109.33 163.1 184.98 163.1 219.3C163.1 251.96 189.43 278.28 222.09 278.28C254.75 278.28 281.08 251.95 281.08 219.3C281.08 184.97 252.75 109.33 222.09 109.33Z" />
	<path id="Layer" class="shp2" d="M222.83 249.83L222.59 250.07C221 251.66 218.41 251.66 216.82 250.07L186.8 220.05C185.21 218.46 185.21 215.87 186.8 214.28L187.04 214.04C188.63 212.45 191.22 212.45 192.81 214.04L222.83 244.06C224.42 245.65 224.42 248.23 222.83 249.83Z" />
	<path id="Layer" class="shp2" d="M221.02 219.07L221.02 219.07C222.68 220.73 225.38 220.73 227.04 219.07L253.41 192.7C255.07 191.04 255.07 188.34 253.41 186.68L253.41 186.68C251.75 185.02 249.05 185.02 247.39 186.68L221.02 213.05C219.35 214.71 219.35 217.41 221.02 219.07Z" />
	<path id="Layer" class="shp2" d="M225.81 344.78C225.81 344.77 225.81 344.75 225.81 344.74L225.81 171.24C225.81 169.06 224.04 167.29 221.86 167.29L220.83 167.29C218.65 167.29 216.88 169.06 216.88 171.24L216.88 344.74C216.88 344.75 216.88 344.77 216.88 344.78L225.81 344.78Z" />
</svg>